<?xml version="1.0" encoding="UTF-8"?>
<svg version="1.1" xmlns="http://www.w3.org/2000/svg" width="327" height="191">
<path d="M0 0 C0.763125 0.19335938 1.52625 0.38671875 2.3125 0.5859375 C27.03798756 6.92379982 48.23564933 18.80605636 67 36 C67.53334961 36.48807129 68.06669922 36.97614258 68.61621094 37.47900391 C78.73309879 46.8697848 87.3460538 57.51908069 95 69 C96.97870798 69.66808238 96.97870798 69.66808238 99.296875 69.921875 C100.16683105 70.05634033 101.03678711 70.19080566 101.93310547 70.3293457 C102.86268066 70.46816162 103.79225586 70.60697754 104.75 70.75 C117.06214013 72.84954169 129.16682144 76.50740896 137 87 C139.33847834 90.84717404 140 92.4580895 140 97 C139.46375 97.14953125 138.9275 97.2990625 138.375 97.453125 C132.19312544 99.52730659 127.47228743 102.67583945 122.375 106.625 C93.38570027 129.03827711 64.72913541 139.88015159 27.52734375 135.31640625 C15.8180661 133.59353587 4.40269935 130.75067083 -6.95703125 127.46484375 C-7.73589188 127.24246536 -8.5147525 127.02008698 -9.31721497 126.79096985 C-11.05423967 126.27884005 -12.78272892 125.73639319 -14.4989624 125.15840149 C-21.5877323 122.91344723 -27.09694205 122.97168519 -34.37109375 124.203125 C-35.41467545 124.36037048 -36.45825714 124.51761597 -37.53346252 124.67962646 C-40.83851419 125.18181133 -44.13767337 125.71465771 -47.4375 126.25 C-50.73448664 126.76445091 -54.03239331 127.2724344 -57.33082581 127.77752686 C-59.37220995 128.09231721 -61.41262388 128.41349777 -63.45176697 128.74249268 C-70.28479734 129.8257651 -77.09963391 130.50971445 -84 131 C-81.74087456 128.65084715 -79.76634683 127.21678784 -76.8125 125.8125 C-76.09707031 125.46832031 -75.38164063 125.12414062 -74.64453125 124.76953125 C-74.10183594 124.51558594 -73.55914062 124.26164062 -73 124 C-73.52916016 124.21615967 -74.05832031 124.43231934 -74.60351562 124.6550293 C-87.21085703 129.68753994 -99.61582158 132.9918748 -113 135 C-113.69472412 135.10541107 -114.38944824 135.21082214 -115.10522461 135.31942749 C-121.78782498 136.3171357 -128.23315823 137.11191977 -135 137 C-133.69369035 134.3873807 -132.7632903 134.3687576 -130.0390625 133.43457031 C-128.76371391 132.99122597 -128.76371391 132.99122597 -127.46260071 132.53892517 C-126.52619247 132.22186111 -125.58978424 131.90479706 -124.625 131.578125 C-123.16352791 131.07358543 -123.16352791 131.07358543 -121.67253113 130.55885315 C-118.45078973 129.44867017 -115.22551346 128.3491709 -112 127.25 C-109.75412116 126.47931902 -107.50843607 125.70807323 -105.26293945 124.9362793 C-100.69050873 123.36605063 -96.11659261 121.80025958 -91.54150391 120.23779297 C-85.7453866 118.25730412 -79.9557167 116.25869307 -74.16796875 114.25390625 C-38.09645325 101.78109334 -1.78771861 90.17912602 35 80 C34.33250732 79.8146167 33.66501465 79.6292334 32.97729492 79.43823242 C22.33841119 76.38541949 15.92937103 71.56272277 9 63 C7.35922756 61.14505594 5.71355575 59.29459262 4.06640625 57.4453125 C3 56 3 56 3 54 C6.60414885 53.97046897 10.20826576 53.95302593 13.8125 53.9375 C14.81732422 53.92912109 15.82214844 53.92074219 16.85742188 53.91210938 C23.62868824 53.89033681 30.26910926 54.2630169 37 55 C28.97274188 52.89711456 20.99721228 50.94628229 12.8125 49.5625 C1.42338111 47.55575333 -8.36148222 43.33139656 -18 37 C-14.78477781 35.08611047 -12.57307443 34.79669087 -8.859375 34.98828125 C-7.37630859 35.05885742 -7.37630859 35.05885742 -5.86328125 35.13085938 C-4.83589844 35.19080078 -3.80851563 35.25074219 -2.75 35.3125 C-1.23212891 35.38500977 -1.23212891 35.38500977 0.31640625 35.45898438 C5.9209931 35.7461195 11.44244568 36.22220831 17 37 C7.6580808 34.38259194 -1.59197646 32.53407105 -11.1875 31.125 C-23.82323425 29.23915559 -37.56332048 26.99941206 -49 21 C-48.67 20.34 -48.34 19.68 -48 19 C-43.53833361 18.97491928 -39.07670669 18.95696373 -34.61499023 18.94506836 C-33.1032642 18.94009927 -31.5915428 18.93332168 -30.07983398 18.92456055 C-20.66598269 18.87144555 -11.38208233 19.09099869 -2 20 C-4.64429651 19.34727468 -7.29017506 18.70273172 -9.9375 18.0625 C-10.67291016 17.88009766 -11.40832031 17.69769531 -12.16601562 17.50976562 C-13.27299805 17.24389648 -13.27299805 17.24389648 -14.40234375 16.97265625 C-15.06741943 16.81031494 -15.73249512 16.64797363 -16.41772461 16.48071289 C-23.74276473 15.11709334 -31.03022653 14.84705877 -38.46484375 14.7890625 C-40.49154645 14.76305559 -42.51823905 14.73625231 -44.54492188 14.70874023 C-45.59091553 14.69543671 -46.63690918 14.68213318 -47.71459961 14.66842651 C-65.97945345 14.42231933 -83.93052434 13.88579517 -102 11 C-102 10.34 -102 9.68 -102 9 C-69.79516028 -1.39600977 -33.55198528 -9.00175215 0 0 Z M115 82 C115.33 82.66 115.66 83.32 116 84 C117.32 83.67 118.64 83.34 120 83 C118.35 82.67 116.7 82.34 115 82 Z " fill="#2F2F2F" transform="translate(168,33)"/>
<path d="M0 0 C0.763125 0.19335938 1.52625 0.38671875 2.3125 0.5859375 C27.03798756 6.92379982 48.23564933 18.80605636 67 36 C67.53334961 36.48807129 68.06669922 36.97614258 68.61621094 37.47900391 C78.73309879 46.8697848 87.3460538 57.51908069 95 69 C96.97870798 69.66808238 96.97870798 69.66808238 99.296875 69.921875 C100.16683105 70.05634033 101.03678711 70.19080566 101.93310547 70.3293457 C102.86268066 70.46816162 103.79225586 70.60697754 104.75 70.75 C117.06214013 72.84954169 129.16682144 76.50740896 137 87 C139.33847834 90.84717404 140 92.4580895 140 97 C139.46375 97.14953125 138.9275 97.2990625 138.375 97.453125 C132.19312544 99.52730659 127.47228743 102.67583945 122.375 106.625 C100.26200707 123.72181306 77.50302707 136.17303146 49 136.1875 C47.76121094 136.19974609 46.52242187 136.21199219 45.24609375 136.22460938 C36.7824684 136.23784758 28.27079935 135.96722926 20 134 C19.67 133.34 19.34 132.68 19 132 C23.97147066 131.89736319 28.64510945 132.28546494 33.5625 133 C67.55143938 137.47088601 94.39717885 125.19333316 121 105 C122.62813792 103.71229092 124.25351914 102.42108164 125.875 101.125 C129.69357509 98.09449857 133.56634473 96.01529785 138 94 C134.56696434 88.30262167 131.72484583 84.40764633 126 81 C126 80.34 126 79.68 126 79 C121.0361361 77.17611681 116.34841047 75.80297146 111.1171875 75 C94.65202115 72.43175166 94.65202115 72.43175166 90.12890625 68.51171875 C88.46844187 65.73916507 87.25406368 62.97321057 86 60 C84.1940278 57.73339521 82.27511637 55.66226588 80.28515625 53.55859375 C79 52 79 52 79 50 C78.34 50 77.68 50 77 50 C75.484375 48.42578125 75.484375 48.42578125 73.75 46.3125 C71.49924272 43.64650867 69.29950455 41.28989909 66.5625 39.125 C65.716875 38.42375 64.87125 37.7225 64 37 C64 36.34 64 35.68 64 35 C63.401875 34.71125 62.80375 34.4225 62.1875 34.125 C60 33 60 33 57 31 C57 30.34 57 29.68 57 29 C55.68 28.67 54.36 28.34 53 28 C53 27.34 53 26.68 53 26 C52.27941406 25.73703125 51.55882812 25.4740625 50.81640625 25.203125 C47.92849187 23.96945284 45.54419495 22.49565996 42.9375 20.75 C27.55248093 10.86109 10.07468871 3.93326377 -8 1 C-9.17949219 0.79632813 -10.35898438 0.59265625 -11.57421875 0.3828125 C-33.03296127 -2.83710159 -55.91937977 -2.22001584 -76.70605469 4.28442383 C-79.59322186 5.18505037 -82.504464 5.95131965 -85.4375 6.6875 C-86.92056641 7.06455078 -86.92056641 7.06455078 -88.43359375 7.44921875 C-91 8 -91 8 -94 8 C-94 8.66 -94 9.32 -94 10 C-93.07960938 10.06058594 -92.15921875 10.12117188 -91.2109375 10.18359375 C-89.94507812 10.26738281 -88.67921875 10.35117187 -87.375 10.4375 C-85.41588913 10.56687525 -83.4567682 10.69610338 -81.49755859 10.82397461 C-79.64014092 10.95488352 -77.78380979 11.10139751 -75.92822266 11.25610352 C-66.80412481 11.98839651 -57.76898792 12.1195423 -48.625 12.0625 C-47.1953141 12.05746589 -45.76562645 12.05290643 -44.3359375 12.04882812 C-40.89058755 12.03799465 -37.44530573 12.02083984 -34 12 C-33.505 12.99 -33.505 12.99 -33 14 C-79.55305466 14.62700965 -79.55305466 14.62700965 -102 11 C-102 10.34 -102 9.68 -102 9 C-69.79516028 -1.39600977 -33.55198528 -9.00175215 0 0 Z " fill="#191919" transform="translate(168,33)"/>
<path d="M0 0 C0.33 0.66 0.66 1.32 1 2 C-10.22269403 5.77630083 -21.46323766 9.48181241 -32.75 13.0625 C-41.19241027 15.74295721 -49.56937668 18.54247647 -57.890625 21.578125 C-61.26464092 22.7812423 -64.67654937 23.82372045 -68.10546875 24.859375 C-75.17588991 27.01438321 -82.11545046 29.47935531 -89.0625 32 C-97.67320983 35.11401013 -106.29790278 38.15005072 -115 41 C-93.10893958 38.7876056 -72.56753486 32.36093836 -52.29760742 23.86767578 C-49.72458307 22.89599067 -47.72769485 22.84413172 -45 23 C-45 23.99 -45 24.98 -45 26 C-46.00160156 26.39832031 -47.00320312 26.79664063 -48.03515625 27.20703125 C-49.37762296 27.74214036 -50.72006981 28.27729928 -52.0625 28.8125 C-52.71927734 29.07353516 -53.37605469 29.33457031 -54.05273438 29.60351562 C-58.39817871 31.33741213 -62.70661643 33.1408365 -67 35 C-66.45287354 34.91435791 -65.90574707 34.82871582 -65.34204102 34.74047852 C-53.22642874 32.86690414 -41.25303164 31.46571156 -29 31 C-31.70154209 32.47114029 -34.00786564 33.32576442 -37.04663086 33.77783203 C-37.83102036 33.89780548 -38.61540985 34.01777893 -39.42356873 34.14138794 C-40.26218948 34.26230804 -41.10081024 34.38322815 -41.96484375 34.5078125 C-42.83516739 34.63815887 -43.70549103 34.76850525 -44.60218811 34.90280151 C-46.43995793 35.17657434 -48.27822654 35.44701688 -50.11694336 35.71435547 C-52.92491595 36.12316789 -55.73104777 36.54313489 -58.53710938 36.96484375 C-60.32542285 37.22982878 -62.11383141 37.49417306 -63.90234375 37.7578125 C-64.73894028 37.88278107 -65.5755368 38.00774963 -66.43748474 38.13650513 C-70.3253185 38.69765217 -74.05898381 39.15841779 -78 39 C-75.81482901 36.59424393 -73.74080329 35.20464419 -70.8125 33.8125 C-70.09707031 33.46832031 -69.38164063 33.12414062 -68.64453125 32.76953125 C-68.10183594 32.51558594 -67.55914062 32.26164062 -67 32 C-67.52916016 32.21615967 -68.05832031 32.43231934 -68.60351562 32.6550293 C-81.21085703 37.68753994 -93.61582158 40.9918748 -107 43 C-107.69472412 43.10541107 -108.38944824 43.21082214 -109.10522461 43.31942749 C-115.78782498 44.3171357 -122.23315823 45.11191977 -129 45 C-127.69369035 42.3873807 -126.7632903 42.3687576 -124.0390625 41.43457031 C-123.18886032 41.13901749 -122.33865814 40.84346466 -121.46269226 40.53895569 C-120.52625381 40.22188156 -119.58981537 39.90480743 -118.625 39.578125 C-117.65041336 39.24167465 -116.67582672 38.9052243 -115.67170715 38.55857849 C-112.45023727 37.44849657 -109.22523568 36.34908813 -106 35.25 C-103.75851464 34.48078691 -101.51722403 33.7110061 -99.27612305 32.94067383 C-94.70809709 31.37187979 -90.13857921 29.80754361 -85.56787109 28.24658203 C-79.69283309 26.23922841 -73.82409244 24.21411726 -67.95703125 22.18359375 C-45.42366194 14.39988154 -22.77116703 7.05684794 0 0 Z " fill="#1B1A1B" transform="translate(162,125)"/>
<path d="M0 0 C14.18572182 -0.29782178 27.58319604 3.79894629 41 8 C40.67 8.99 40.34 9.98 40 11 C35.34054316 10.55124084 30.69741192 10.09963027 26.0625 9.4375 C21.05779278 8.7797972 16.03752178 8.91665865 11 9 C11.61875 9.61875 12.2375 10.2375 12.875 10.875 C14.25 12.25 15.625 13.625 17 15 C19.68963873 15.68113131 19.68963873 15.68113131 22.86328125 16.1484375 C24.06146484 16.34953125 25.25964844 16.550625 26.49414062 16.7578125 C28.99660834 17.16230344 31.49920802 17.56597895 34.00195312 17.96875 C42.25231921 19.35477641 50.06975906 21.33301663 58 24 C58 24.66 58 25.32 58 26 C58.66 26.33 59.32 26.66 60 27 C56.34606463 28.26823485 53.50929974 27.75715321 49.75 27.0625 C48.67234375 26.86785156 47.5946875 26.67320313 46.484375 26.47265625 C45.66453125 26.31667969 44.8446875 26.16070312 44 26 C44 25.34 44 24.68 44 24 C45.65 24 47.3 24 49 24 C39.6580808 21.38259194 30.40802354 19.53407105 20.8125 18.125 C8.17676575 16.23915559 -5.56332048 13.99941206 -17 8 C-16.67 7.34 -16.34 6.68 -16 6 C-11.53833361 5.97491928 -7.07670669 5.95696373 -2.61499023 5.94506836 C-1.1032642 5.94009927 0.4084572 5.93332168 1.92016602 5.92456055 C11.33401731 5.87144555 20.61791767 6.09099869 30 7 C20.03713976 4.54209676 10.18341204 2.34598142 0 1 C0 0.67 0 0.34 0 0 Z " fill="#2E2E2F" transform="translate(136,46)"/>
<path d="M0 0 C3.53040418 1.08627821 6.85031454 2.37094352 10.1875 3.9375 C20.37579087 8.51754713 31.48432651 10.12665694 42.41601562 12.01757812 C49.34643124 13.28249155 55.57802356 15.09079128 62 18 C62 18.99 62 19.98 62 21 C60.70578125 20.855625 59.4115625 20.71125 58.078125 20.5625 C45.73155606 19.1917316 33.39572019 17.84566852 21 17 C21.55429688 17.68707031 22.10859375 18.37414062 22.6796875 19.08203125 C23.76636719 20.43361328 23.76636719 20.43361328 24.875 21.8125 C25.59429687 22.70582031 26.31359375 23.59914063 27.0546875 24.51953125 C29 27 29 27 31 30 C31.99 30.33 32.98 30.66 34 31 C34.721875 31.78375 35.44375 32.5675 36.1875 33.375 C41.28225324 38.13010302 47.22171392 39.29392853 54 40 C54 40.99 54 41.98 54 43 C53.01 43.33 52.02 43.66 51 44 C50.67 43.34 50.34 42.68 50 42 C47.95409286 41.30586832 47.95409286 41.30586832 45.5 40.75 C36.02286818 38.0325913 30.08096273 32.51433251 24 25 C22.35922756 23.14505594 20.71355575 21.29459262 19.06640625 19.4453125 C18 18 18 18 18 16 C21.60414885 15.97046897 25.20826576 15.95302593 28.8125 15.9375 C29.81732422 15.92912109 30.82214844 15.92074219 31.85742188 15.91210938 C38.62868824 15.89033681 45.26910926 16.2630169 52 17 C43.97288594 14.8971523 35.99738893 12.94481901 27.8125 11.5625 C17.81586513 9.81726891 8.59787497 6.39866568 0 1 C0 0.67 0 0.34 0 0 Z " fill="#18171A" transform="translate(153,71)"/>
<path d="M0 0 C14.18572182 -0.29782178 27.58319604 3.79894629 41 8 C40.67 8.99 40.34 9.98 40 11 C35.00708832 10.50609328 30.01558256 10.00408597 25.02734375 9.46484375 C13.97078614 8.30257859 3.11499249 7.73778524 -8 8 C-4.57452501 10.28364999 -1.24343863 11.13400707 2.6875 12.125 C3.38939453 12.30675781 4.09128906 12.48851562 4.81445312 12.67578125 C6.54166268 13.12227079 8.27066456 13.5618166 10 14 C10 14.33 10 14.66 10 15 C0.83404773 14.75763107 -7.39678442 11.89264444 -16 9 C-16 8.01 -16 7.02 -16 6 C-11.53833361 5.97491928 -7.07670669 5.95696373 -2.61499023 5.94506836 C-1.1032642 5.94009927 0.4084572 5.93332168 1.92016602 5.92456055 C11.33401731 5.87144555 20.61791767 6.09099869 30 7 C20.03713976 4.54209676 10.18341204 2.34598142 0 1 C0 0.67 0 0.34 0 0 Z " fill="#1B1B1C" transform="translate(136,46)"/>
<path d="M0 0 C8.5395952 0.53438786 16.79664343 1.7214353 25.1875 3.375 C26.29802734 3.58382812 27.40855469 3.79265625 28.55273438 4.0078125 C34.90999269 5.2409176 40.90845603 6.80009711 47 9 C47 9.66 47 10.32 47 11 C47.66 11.33 48.32 11.66 49 12 C45.34606463 13.26823485 42.50929974 12.75715321 38.75 12.0625 C37.67234375 11.86785156 36.5946875 11.67320313 35.484375 11.47265625 C34.66453125 11.31667969 33.8446875 11.16070312 33 11 C33 10.34 33 9.68 33 9 C34.65 9 36.3 9 38 9 C28.22167726 6.30959556 18.54660993 4.3146782 8.47753906 3.03979492 C7.6625293 2.93127197 6.84751953 2.82274902 6.0078125 2.7109375 C4.91944092 2.57631104 4.91944092 2.57631104 3.80908203 2.43896484 C2 2 2 2 0 0 Z " fill="#1C1C1E" transform="translate(147,61)"/>
<path d="M0 0 C0.433125 0.474375 0.86625 0.94875 1.3125 1.4375 C3.02309613 3.23686957 3.02309613 3.23686957 6 4 C6.721875 4.78375 7.44375 5.5675 8.1875 6.375 C13.28225324 11.13010302 19.22171392 12.29392853 26 13 C26 13.99 26 14.98 26 16 C25.01 16.33 24.02 16.66 23 17 C22.67 16.34 22.34 15.68 22 15 C19.95409286 14.30586832 19.95409286 14.30586832 17.5 13.75 C9.85952068 11.5826434 3.50510863 7.6597258 -1 1 C-0.67 0.67 -0.34 0.34 0 0 Z " fill="#1D1C1D" transform="translate(181,98)"/>
<path d="M0 0 C7.73470033 0.29409507 13.98157575 1.72676526 21 5 C21 5.99 21 6.98 21 8 C19.58297487 7.85769192 18.1663904 7.71099254 16.75 7.5625 C15.56664062 7.44068359 15.56664062 7.44068359 14.359375 7.31640625 C12.17635361 7.02365007 10.1226818 6.57935581 8 6 C8.33 5.34 8.66 4.68 9 4 C6.03 3.01 3.06 2.02 0 1 C0 0.67 0 0.34 0 0 Z " fill="#1E1D1E" transform="translate(194,84)"/>
<path d="M0 0 C0.33 0.66 0.66 1.32 1 2 C0.38253906 2.18175781 -0.23492187 2.36351563 -0.87109375 2.55078125 C-5.0846703 3.80138616 -9.27894783 5.0761479 -13.4375 6.5 C-18.56054132 8.23522367 -23.77144818 9.62200784 -29 11 C-28.67 10.01 -28.34 9.02 -28 8 C-25.31616211 6.92504883 -25.31616211 6.92504883 -21.77734375 5.95703125 C-20.51728516 5.60576172 -19.25722656 5.25449219 -17.95898438 4.89257812 C-16.61856233 4.53228133 -15.27806653 4.17225884 -13.9375 3.8125 C-12.59278136 3.4419057 -11.24837537 3.07017494 -9.90429688 2.69726562 C-6.60577806 1.78692172 -3.30447971 0.88841646 0 0 Z " fill="#1C1C1C" transform="translate(193,116)"/>
<path d="M0 0 C-2.71182212 2.60334924 -3.89133813 2.99456691 -7.75 3.1875 C-8.8225 3.125625 -9.895 3.06375 -11 3 C-10 1 -10 1 -7.1875 -0.1875 C-4.14038924 -0.96421451 -2.86250637 -1.10096399 0 0 Z " fill="#141415" transform="translate(44,167)"/>
<path d="M0 0 C0.99 0 1.98 0 3 0 C4.4375 2.1875 4.4375 2.1875 6 5 C6.721875 5.886875 7.44375 6.77375 8.1875 7.6875 C10 10 10 10 10 12 C9.34 12 8.68 12 8 12 C6.5625 10.390625 6.5625 10.390625 5 8.25 C4.484375 7.55390625 3.96875 6.8578125 3.4375 6.140625 C2.10004751 4.14898379 1.01644577 2.16972077 0 0 Z " fill="#101010" transform="translate(171,87)"/>
<path d="M0 0 C0.99 0.33 1.98 0.66 3 1 C1.02 1.99 1.02 1.99 -1 3 C-0.67 2.01 -0.34 1.02 0 0 Z M3 3 C1.35 4.65 -0.3 6.3 -2 8 C-2.66 6.68 -3.32 5.36 -4 4 C-1.53721199 2.768606 0.2795055 2.92840804 3 3 Z " fill="#363636" transform="translate(225,72)"/>
</svg>
